<?xml version="1.0" encoding="UTF-8"?>
<svg version="1.1" xmlns="http://www.w3.org/2000/svg" width="200" height="200" fill="none"> 
<path d="M0 0 C8.32847172 0 13.616742 1.51299651 19.8125 7.125 C26.97626608 15.21217657 27.57591175 24.21543445 27.51642036 34.62186241 C27.50363288 36.87232966 27.51521883 39.12159848 27.53245544 41.37202454 C27.55898331 45.33622509 27.56475742 49.30012459 27.56335449 53.2644043 C27.56111393 59.61800322 27.57541771 65.97123165 27.61894035 72.32468605 C27.62871517 74.53108782 27.62009884 76.73689434 27.61024475 78.94328308 C27.61639243 80.30553569 27.62330532 81.66778513 27.63110352 83.0300293 C27.62966087 84.80013618 27.62966087 84.80013618 27.62818909 86.60600281 C28.34206367 93.12245575 30.92598655 97.75198874 36 102 C40.89310631 105.22500188 45.29187896 105.86925701 51 105 C56.30444176 103.25991858 59.97053447 100.77723411 63 96 C64.7038195 92.36167265 65.25311247 89.5011433 65.27124023 85.49462891 C65.28142685 84.41645905 65.29161346 83.33828918 65.30210876 82.22744751 C65.30424881 81.07215546 65.30638885 79.9168634 65.30859375 78.7265625 C65.33375225 76.26822678 65.35915029 73.8098935 65.38476562 71.3515625 C65.41350667 67.48503239 65.43753133 63.61854464 65.45629883 59.75195312 C65.47798066 56.01410132 65.51742115 52.27674304 65.55859375 48.5390625 C65.55870956 47.38781891 65.55882538 46.23657532 65.5589447 45.05044556 C65.67355071 35.73270491 67.28105962 29.87519481 74 23 C79.59415148 18.80438639 86.31970435 19.39425161 93 20 C98.43322039 21.67935903 101.8597776 25.36533441 105 30 C107.43534352 34.67845248 107.27947801 39.06680351 107.2734375 44.2109375 C107.29372692 46.03125614 107.31457771 47.8515686 107.3359375 49.671875 C107.3585148 52.52446736 107.37500372 55.37681462 107.38085938 58.22949219 C107.39041725 60.9945846 107.42423086 63.75859036 107.4609375 66.5234375 C107.45336929 67.79095352 107.45336929 67.79095352 107.44564819 69.08407593 C107.54078509 74.85246377 108.66990585 78.25649341 112 83 C114.04540458 84.41897258 114.04540458 84.41897258 116.25 84.9375 C117.4875 85.288125 118.725 85.63875 120 86 C120 90.62 120 95.24 120 100 C112.61409111 100.52756492 107.91892324 99.0808643 102.08203125 94.4921875 C96.42595038 89.30644171 92.91509111 82.94263016 92.50170898 75.17041016 C92.48104206 73.46008477 92.47987378 71.74943584 92.49609375 70.0390625 C92.48667252 69.12667816 92.47725128 68.21429382 92.46754456 67.27426147 C92.43910952 64.39093981 92.43581038 61.50844996 92.4375 58.625 C92.43389251 55.72025005 92.42442068 52.81609359 92.39674377 49.91146851 C92.37994307 48.11192384 92.37708945 46.31218228 92.38975525 44.51260376 C92.38287186 43.701008 92.37598846 42.88941223 92.36889648 42.05322266 C92.36985825 41.34090485 92.37082001 40.62858704 92.37181091 39.89468384 C91.88643589 37.42129702 90.96290759 36.53591426 89 35 C86.5 34.33333333 86.5 34.33333333 84 35 C81.36541411 38.53302269 80.62661612 41.09148414 80.63110352 45.45776367 C80.62422012 46.52625046 80.61733673 47.59473724 80.61024475 48.69560242 C80.61948219 50.41442375 80.61948219 50.41442375 80.62890625 52.16796875 C80.61151715 54.61263156 80.59393285 57.05729299 80.57617188 59.50195312 C80.56612157 63.34190499 80.56249744 67.18176407 80.56420898 71.02172852 C80.56062126 74.73741986 80.53320483 78.45240409 80.50390625 82.16796875 C80.51208878 83.30372849 80.5202713 84.43948822 80.52870178 85.60966492 C80.43460261 95.77619999 77.96455656 103.78529337 70.92578125 111.24609375 C62.30287593 119.09940914 53.40549853 120.57305608 42.14453125 120.31640625 C37.09619905 120.04581836 33.24997065 118.73148219 29 116 C28.37996094 115.649375 27.75992188 115.29875 27.12109375 114.9375 C19.81327659 110.39181675 14.99624596 102.263188 13 94 C12.63155917 89.46604552 12.59994407 84.94964238 12.61987495 80.40440178 C12.62906716 78.1122202 12.61867155 75.82084243 12.60325623 73.52870178 C12.56337179 67.01776197 12.56195452 60.5068914 12.56420898 53.99584961 C12.56426023 49.99883802 12.54502951 46.00226439 12.51487541 42.005373 C12.50410709 39.75678165 12.51614253 37.50904591 12.52870178 35.26048279 C12.54070431 25.43072679 12.54070431 25.43072679 8 17 C5.95459542 15.58102742 5.95459542 15.58102742 3.75 15.0625 C2.5125 14.711875 1.275 14.36125 0 14 C0 9.38 0 4.76 0 0 Z " fill="#000000" transform="translate(40,40)"/>
</svg>
